<?xml version="1.0" encoding="utf-8"?>
<!-- Generator: Adobe Illustrator 25.4.1, SVG Export Plug-In . SVG Version: 6.00 Build 0)  -->
<svg version="1.1" xmlns="http://www.w3.org/2000/svg" xmlns:xlink="http://www.w3.org/1999/xlink" x="0px" y="0px"
	 viewBox="0 0 1200 800" style="enable-background:new 0 0 1200 800;" xml:space="preserve">
<style type="text/css">
	.st0{fill:#F9F5F2;}
	.st1{clip-path:url(#SVGID_00000017510191336894512740000003290859945447628959_);fill:#435563;}
	.st2{clip-path:url(#SVGID_00000017510191336894512740000003290859945447628959_);}
	.st3{fill:#E45578;}
	.st4{fill:none;}
	.st5{opacity:0.5;fill:url(#SVGID_00000111902117132194133550000016086422247963334044_);}
	.st6{opacity:0.5;fill:url(#SVGID_00000101807603124704445950000010422742452753121930_);}
	.st7{fill:#435563;}
	.st8{fill:url(#SVGID_00000158001837713898759180000017424470186786901902_);}
	.st9{opacity:0.3;fill:url(#SVGID_00000072963090771283709490000007339851064778366849_);}
	.st10{fill:#0D2333;}
	.st11{fill:#2F4353;}
	.st12{fill:url(#SVGID_00000152251866193384129360000002307314430307866016_);}
	.st13{fill:url(#SVGID_00000149375965349081238480000017277406198471704746_);}
	.st14{fill:url(#SVGID_00000119105667217991869930000001562640680952395959_);}
	.st15{fill:url(#SVGID_00000024698993857176038000000003850266698021630650_);}
	.st16{fill:url(#SVGID_00000103241540927718028730000003957562491311875716_);}
	.st17{fill:url(#SVGID_00000024701753652877663130000009770805282534555326_);}
	.st18{fill:url(#SVGID_00000107586400313933381880000004212453725471481004_);}
	.st19{fill:#24394A;}
	.st20{fill:url(#SVGID_00000169557465768505675670000014669242270649009330_);}
	.st21{fill:url(#SVGID_00000065788162196990024950000014475243131962519201_);}
	.st22{fill:url(#SVGID_00000156588283208869085920000006686964123789361039_);}
	.st23{fill:url(#SVGID_00000061449011623288459700000009773394184679458465_);}
	.st24{fill:url(#SVGID_00000177469277902740409840000000556361361875911317_);}
	.st25{opacity:0.5;fill:url(#SVGID_00000095305061049289901490000004647240912259524485_);}
	.st26{fill:url(#SVGID_00000036953549827854136840000007636979586547163525_);}
	.st27{opacity:0.5;fill:url(#SVGID_00000018928446531310592850000004740110911637919873_);}
	.st28{opacity:0.5;fill:url(#SVGID_00000024700250333083671190000000172093014319611310_);}
	.st29{fill:url(#SVGID_00000051368565234999429750000013520951122858017982_);}
	.st30{fill:url(#SVGID_00000047040566575699886020000004715650702312697531_);}
	.st31{fill:url(#SVGID_00000155830567924714611570000015726537392186795199_);}
</style>
<g id="background">
	<rect x="0" y="0" class="st0" width="1200" height="800"/>
</g>
<g id="object">
	<g>
		<defs>
			<rect id="SVGID_1_" x="0" y="0" width="1200" height="800"/>
		</defs>
		<clipPath id="SVGID_00000026872803340371274040000011536879044630042812_">
			<use xlink:href="#SVGID_1_"  style="overflow:visible;"/>
		</clipPath>
		<polygon style="clip-path:url(#SVGID_00000026872803340371274040000011536879044630042812_);fill:#435563;" points="
			1156.33,509.2 1163.53,520.24 1185.65,480.51 1137.73,480.7 		"/>
		<g style="clip-path:url(#SVGID_00000026872803340371274040000011536879044630042812_);">
			<polygon class="st3" points="850.54,713.39 874.69,676.39 948.84,809.54 788.2,808.91 			"/>
			<g>
				<g>
					<polygon class="st3" points="64.3,419.11 122.72,524.03 122.72,524.04 -3.86,523.55 -3.87,523.54 64.29,419.11 					"/>
					<polygon class="st4" points="466.89,808.3 541.03,941.46 541.02,941.47 541.02,941.47 541.03,941.46 466.88,808.3 
						466.87,808.3 306.23,807.68 306.23,807.68 466.87,808.3 					"/>
					<polygon class="st4" points="627.54,808.93 627.54,808.93 788.19,809.55 788.2,809.54 714.05,676.38 714.04,676.38 
						714.04,676.37 639.9,543.22 639.89,543.22 639.9,543.22 714.04,676.37 714.04,676.38 714.05,676.38 788.2,809.54 
						788.19,809.55 					"/>
					<polygon class="st4" points="380.38,940.84 541.02,941.47 541.02,941.47 					"/>
					<polygon class="st4" points="95.56,636.86 157.9,541.34 157.92,541.34 157.9,541.34 					"/>
					<polygon class="st4" points="-15.1,806.45 -15.09,806.43 -15.08,806.45 					"/>
					<polygon class="st4" points="71.41,673.89 100.93,674 71.41,673.89 					"/>
					<polygon class="st3" points="306.21,807.68 145.57,807.05 145.56,807.04 232.05,674.51 232.05,674.51 232.06,674.51 
						232.07,674.51 306.22,807.66 					"/>
					
						<linearGradient id="SVGID_00000085226207487891779730000005383528825376331404_" gradientUnits="userSpaceOnUse" x1="1947.4246" y1="-8320.9707" x2="2132.0828" y2="-8188.6489" gradientTransform="matrix(-0.4787 -0.878 -0.878 0.4787 -6097.4746 6476.0127)">
						<stop  offset="0.3731" style="stop-color:#24394A"/>
						<stop  offset="0.3857" style="stop-color:#394C5C"/>
						<stop  offset="0.4138" style="stop-color:#62717D"/>
						<stop  offset="0.4454" style="stop-color:#88939D"/>
						<stop  offset="0.4797" style="stop-color:#A8B1B7"/>
						<stop  offset="0.5176" style="stop-color:#C4C9CE"/>
						<stop  offset="0.5605" style="stop-color:#DADDE0"/>
						<stop  offset="0.6105" style="stop-color:#EAECEE"/>
						<stop  offset="0.6724" style="stop-color:#F6F7F8"/>
						<stop  offset="0.7591" style="stop-color:#FDFDFD"/>
						<stop  offset="1" style="stop-color:#FFFFFF"/>
					</linearGradient>
					<polygon style="opacity:0.5;fill:url(#SVGID_00000085226207487891779730000005383528825376331404_);" points="71.41,673.88 
						100.93,673.99 232.05,674.5 145.55,807.03 					"/>
					
						<linearGradient id="SVGID_00000112622972138164871400000003548690467147516345_" gradientUnits="userSpaceOnUse" x1="2158.1589" y1="-3254.9058" x2="2232.4001" y2="-3388.5398" gradientTransform="matrix(0.878 -0.4787 -0.4787 -0.878 -2996.1338 -1116.4103)">
						<stop  offset="0.3731" style="stop-color:#24394A"/>
						<stop  offset="0.3857" style="stop-color:#394C5C"/>
						<stop  offset="0.4138" style="stop-color:#62717D"/>
						<stop  offset="0.4454" style="stop-color:#88939D"/>
						<stop  offset="0.4797" style="stop-color:#A8B1B7"/>
						<stop  offset="0.5176" style="stop-color:#C4C9CE"/>
						<stop  offset="0.5605" style="stop-color:#DADDE0"/>
						<stop  offset="0.6105" style="stop-color:#EAECEE"/>
						<stop  offset="0.6724" style="stop-color:#F6F7F8"/>
						<stop  offset="0.7591" style="stop-color:#FDFDFD"/>
						<stop  offset="1" style="stop-color:#FFFFFF"/>
					</linearGradient>
					<polygon style="opacity:0.5;fill:url(#SVGID_00000112622972138164871400000003548690467147516345_);" points="627.54,808.91 
						627.53,808.93 466.89,808.3 466.88,808.29 553.38,675.76 553.39,675.76 553.39,675.76 627.54,808.91 					"/>
					<polygon class="st7" points="392.73,675.14 553.38,675.76 466.88,808.29 					"/>
					
						<linearGradient id="SVGID_00000001662964842551960570000010017677037773768342_" gradientUnits="userSpaceOnUse" x1="1818.5941" y1="-8351.9727" x2="1984.3505" y2="-8517.7285" gradientTransform="matrix(-0.4787 -0.878 -0.878 0.4787 -6097.4746 6476.0127)">
						<stop  offset="0.1729" style="stop-color:#24394A"/>
						<stop  offset="0.2066" style="stop-color:#413D51"/>
						<stop  offset="0.2631" style="stop-color:#6C445B"/>
						<stop  offset="0.3225" style="stop-color:#914964"/>
						<stop  offset="0.3843" style="stop-color:#AF4D6B"/>
						<stop  offset="0.4491" style="stop-color:#C75171"/>
						<stop  offset="0.5182" style="stop-color:#D75375"/>
						<stop  offset="0.5949" style="stop-color:#E15577"/>
						<stop  offset="0.6939" style="stop-color:#E45578"/>
					</linearGradient>
					<polygon style="fill:url(#SVGID_00000001662964842551960570000010017677037773768342_);" points="466.87,808.3 306.23,807.68 
						306.22,807.66 392.72,675.14 392.73,675.14 466.88,808.29 					"/>
					<polygon class="st3" points="800.55,543.84 714.04,676.37 639.9,543.22 					"/>
					
						<linearGradient id="SVGID_00000049943604017224273100000000308377482544060859_" gradientUnits="userSpaceOnUse" x1="1775.8193" y1="-8919.1592" x2="1884.9238" y2="-8810.0547" gradientTransform="matrix(-0.4787 -0.878 -0.878 0.4787 -6097.4746 6476.0127)">
						<stop  offset="0" style="stop-color:#FFFFFF"/>
						<stop  offset="0.2638" style="stop-color:#FDFDFD"/>
						<stop  offset="0.4057" style="stop-color:#F5F5F5"/>
						<stop  offset="0.5186" style="stop-color:#E7E7E7"/>
						<stop  offset="0.6162" style="stop-color:#D4D4D4"/>
						<stop  offset="0.7041" style="stop-color:#BBBBBB"/>
						<stop  offset="0.7848" style="stop-color:#9C9C9C"/>
						<stop  offset="0.8601" style="stop-color:#787877"/>
						<stop  offset="0.9301" style="stop-color:#4E4E4D"/>
						<stop  offset="0.9954" style="stop-color:#20201F"/>
						<stop  offset="1" style="stop-color:#1C1C1B"/>
					</linearGradient>
					<polygon style="opacity:0.3;fill:url(#SVGID_00000049943604017224273100000000308377482544060859_);" points="714.05,676.38 
						714.04,676.37 800.55,543.84 800.56,543.84 874.71,677 874.7,677.01 					"/>
					<polygon class="st3" points="961.21,544.46 874.71,677 800.56,543.84 					"/>
					<polygon class="st10" points="306.23,807.68 380.37,940.83 380.37,940.83 380.36,940.84 380.36,940.84 380.36,940.84 
						219.72,940.22 219.71,940.21 306.21,807.68 306.23,807.68 					"/>
					<polygon class="st3" points="466.88,808.3 541.03,941.46 541.02,941.47 380.38,940.84 380.37,940.83 380.37,940.83 
						306.23,807.68 466.87,808.3 					"/>
					<polygon class="st7" points="466.89,808.3 627.53,808.93 541.03,941.46 					"/>
					<polygon class="st11" points="296.56,1075.03 222.42,941.88 383.06,942.51 					"/>
					
						<linearGradient id="SVGID_00000013916042127227122170000012053106259198013620_" gradientUnits="userSpaceOnUse" x1="1705.9674" y1="11557.5117" x2="1813.1453" y2="11664.6895" gradientTransform="matrix(-0.4787 -0.878 0.878 -0.4787 -9123.6387 8124.9629)">
						<stop  offset="0" style="stop-color:#24394A"/>
						<stop  offset="0.1413" style="stop-color:#24394A"/>
						<stop  offset="1" style="stop-color:#24394A"/>
					</linearGradient>
					<polygon style="fill:url(#SVGID_00000013916042127227122170000012053106259198013620_);" points="293.86,1073.37 
						293.86,1073.37 293.85,1073.39 293.85,1073.39 293.85,1073.39 133.21,1072.76 133.2,1072.75 219.7,940.22 219.72,940.22 
						293.86,1073.37 					"/>
					
						<rect x="380.36" y="940.84" transform="matrix(0.8944 -0.4472 0.4472 0.8944 -380.6029 269.4299)" class="st7" width="0" height="0"/>
					
						<linearGradient id="SVGID_00000108274801993046674520000000509127416745756039_" gradientUnits="userSpaceOnUse" x1="1758.0251" y1="11783.1211" x2="1758.0251" y2="11779.5459" gradientTransform="matrix(-0.4787 -0.878 0.878 -0.4787 -9123.6387 8124.9629)">
						<stop  offset="0" style="stop-color:#24394A"/>
						<stop  offset="0.1413" style="stop-color:#24394A"/>
						<stop  offset="1" style="stop-color:#24394A"/>
					</linearGradient>
					<polygon style="fill:url(#SVGID_00000108274801993046674520000000509127416745756039_);" points="380.36,940.84 380.36,940.84 
						380.36,940.84 380.36,940.84 					"/>
					<rect x="337.11" y="927.98" class="st11" width="0" height="158.26"/>
					
						<linearGradient id="SVGID_00000026873412748035631970000013652743204817401985_" gradientUnits="userSpaceOnUse" x1="1720.5503" y1="11783.1045" x2="1720.5503" y2="11504.3438" gradientTransform="matrix(-0.4787 -0.878 0.878 -0.4787 -9123.6387 8124.9629)">
						<stop  offset="0" style="stop-color:#24394A"/>
						<stop  offset="0.1413" style="stop-color:#24394A"/>
						<stop  offset="1" style="stop-color:#24394A"/>
					</linearGradient>
					
						<rect x="337.11" y="927.98" style="fill:url(#SVGID_00000026873412748035631970000013652743204817401985_);" width="0" height="158.26"/>
					
						<linearGradient id="SVGID_00000134217988929618909520000011948007345385851014_" gradientUnits="userSpaceOnUse" x1="1683.0668" y1="11643.708" x2="1683.0668" y2="11643.708" gradientTransform="matrix(-0.4787 -0.878 0.878 -0.4787 -9123.6387 8124.9629)">
						<stop  offset="0" style="stop-color:#24394A"/>
						<stop  offset="0.1413" style="stop-color:#24394A"/>
						<stop  offset="1" style="stop-color:#24394A"/>
					</linearGradient>
					
						<rect x="293.85" y="1073.39" style="fill:url(#SVGID_00000134217988929618909520000011948007345385851014_);" width="0" height="0"/>
					
						<linearGradient id="SVGID_00000072965670571552544800000002408936986080659852_" gradientUnits="userSpaceOnUse" x1="1683.0668" y1="11643.708" x2="1683.0668" y2="11643.708" gradientTransform="matrix(-0.4787 -0.878 0.878 -0.4787 -9123.6387 8124.9629)">
						<stop  offset="0" style="stop-color:#24394A"/>
						<stop  offset="0.1413" style="stop-color:#24394A"/>
						<stop  offset="1" style="stop-color:#24394A"/>
					</linearGradient>
					
						<rect x="293.85" y="1073.39" style="fill:url(#SVGID_00000072965670571552544800000002408936986080659852_);" width="0" height="0"/>
					
						<linearGradient id="SVGID_00000136385806576297778690000000582489824575516335_" gradientUnits="userSpaceOnUse" x1="1682.1335" y1="11642.7822" x2="1684.0173" y2="11644.666" gradientTransform="matrix(-0.4787 -0.878 0.878 -0.4787 -9123.6387 8124.9629)">
						<stop  offset="0" style="stop-color:#24394A"/>
						<stop  offset="0.1413" style="stop-color:#24394A"/>
						<stop  offset="1" style="stop-color:#24394A"/>
					</linearGradient>
					
						<rect x="293.86" y="1073.37" style="fill:url(#SVGID_00000136385806576297778690000000582489824575516335_);" width="0" height="0"/>
					
						<linearGradient id="SVGID_00000026149314252134396250000013239808606048030875_" gradientUnits="userSpaceOnUse" x1="1683.0756" y1="11645.8633" x2="1683.0756" y2="11641.5859" gradientTransform="matrix(-0.4787 -0.878 0.878 -0.4787 -9123.6387 8124.9629)">
						<stop  offset="0" style="stop-color:#24394A"/>
						<stop  offset="0.1413" style="stop-color:#24394A"/>
						<stop  offset="1" style="stop-color:#24394A"/>
					</linearGradient>
					
						<rect x="293.86" y="1073.37" style="fill:url(#SVGID_00000026149314252134396250000013239808606048030875_);" width="0" height="0"/>
					<polygon class="st19" points="788.2,809.54 788.19,809.55 627.54,808.93 627.54,808.93 627.53,808.93 627.54,808.91 
						627.54,808.91 553.39,675.76 714.04,676.38 714.05,676.38 					"/>
					
						<linearGradient id="SVGID_00000078016277645744339050000009683720291963174303_" gradientUnits="userSpaceOnUse" x1="714.0511" y1="-1480.719" x2="874.6981" y2="-1480.719" gradientTransform="matrix(1 0 0 -1 0 -737.7584)">
						<stop  offset="0" style="stop-color:#24394A"/>
						<stop  offset="0.0804" style="stop-color:#2F4353"/>
						<stop  offset="0.226" style="stop-color:#3A4D5C"/>
						<stop  offset="0.431" style="stop-color:#415361"/>
						<stop  offset="1" style="stop-color:#435563"/>
					</linearGradient>
					<polygon style="fill:url(#SVGID_00000078016277645744339050000009683720291963174303_);" points="874.7,677.01 788.2,809.54 
						714.05,676.38 					"/>
					<polygon class="st11" points="639.9,543.22 639.89,543.2 726.39,410.67 726.41,410.67 800.55,543.83 800.55,543.84 					"/>
					<polygon class="st7" points="95.56,636.86 71.4,673.87 -2.74,540.72 157.9,541.34 					"/>
					<polygon class="st7" points="157.9,541.34 157.92,541.34 318.56,541.97 232.06,674.5 232.06,674.5 232.06,674.5 232.07,674.51 
						232.06,674.51 232.05,674.51 232.05,674.51 100.93,674 71.41,673.89 71.41,673.89 145.56,807.04 145.57,807.05 306.21,807.68 
						219.71,940.21 219.72,940.22 219.7,940.22 133.2,1072.75 59.06,939.6 59.06,939.6 59.04,939.6 59.05,939.58 145.55,807.05 
						-15.09,806.43 71.41,673.91 71.38,673.91 71.39,673.89 71.4,673.87 71.4,673.87 71.4,673.87 95.56,636.86 					"/>
					<polygon class="st19" points="232.07,674.51 232.06,674.5 318.56,541.97 318.58,541.97 392.72,675.12 392.72,675.14 					"/>
					<polygon class="st19" points="-15.1,806.41 -15.09,806.43 -15.11,806.43 					"/>
					<polygon class="st19" points="466.88,808.29 466.89,808.3 466.87,808.3 					"/>
					<polygon class="st19" points="306.23,807.68 306.21,807.68 306.22,807.66 					"/>
					<polygon class="st19" points="133.19,1072.76 133.2,1072.75 133.21,1072.76 					"/>
					<polygon class="st19" points="293.87,1073.39 293.85,1073.39 293.85,1073.39 293.86,1073.37 293.86,1073.37 					"/>
					<polygon class="st19" points="874.71,677 874.71,677.01 874.7,677.01 					"/>
					<polygon class="st7" points="445.66,465.11 445.66,465.11 501.48,465.33 471.42,511.38 					"/>
					<polygon class="st7" points="107.41,472.19 107.41,472.19 163.23,472.41 133.18,518.46 					"/>
					<polygon class="st7" points="739.6,401.75 739.6,401.75 827.26,402.09 780.06,474.4 					"/>
					<polygon class="st19" points="380.36,940.84 380.36,940.84 380.37,940.83 380.38,940.84 					"/>
					<polygon class="st19" points="726.4,410.66 726.41,410.67 726.39,410.67 					"/>
					<polygon class="st19" points="714.04,676.37 714.05,676.38 714.04,676.38 					"/>
					<polygon class="st19" points="-2.76,540.72 -2.75,540.7 -2.74,540.72 					"/>
					<polygon class="st19" points="961.22,544.46 961.21,544.46 961.21,544.45 					"/>
					<polygon class="st19" points="157.91,541.33 157.92,541.34 157.9,541.34 					"/>
					<polygon class="st19" points="800.55,543.83 800.56,543.84 800.55,543.84 					"/>
					<polygon class="st19" points="318.57,541.95 318.58,541.97 318.56,541.97 					"/>
					<polygon class="st19" points="479.24,542.59 553.38,675.75 553.38,675.75 553.38,675.75 553.39,675.76 553.39,675.76 
						553.38,675.76 392.73,675.14 392.72,675.14 392.72,675.12 479.22,542.59 479.23,542.58 479.24,542.59 479.24,542.59 					"/>
					<polygon class="st19" points="639.89,543.22 639.88,543.22 639.88,543.22 639.89,543.2 639.9,543.22 					"/>
					<g>
						<path class="st4" d="M479.24,542.59L479.24,542.59L479.24,542.59z"/>
						<polygon class="st7" points="639.88,543.22 639.89,543.22 639.9,543.22 714.04,676.37 714.04,676.38 553.41,675.76 
							639.91,543.24 479.26,542.62 553.4,675.76 553.39,675.76 553.38,675.75 479.24,542.59 639.88,543.22 						"/>
						<polygon class="st3" points="639.91,543.24 553.41,675.76 553.41,675.77 553.4,675.76 479.26,542.62 						"/>
					</g>
					
						<linearGradient id="SVGID_00000113322263051835218650000007191374207896834466_" gradientUnits="userSpaceOnUse" x1="1911.6583" y1="11642.3564" x2="1911.6583" y2="11501.6016" gradientTransform="matrix(-0.4787 -0.878 0.878 -0.4787 -9123.6387 8124.9629)">
						<stop  offset="0" style="stop-color:#24394A"/>
						<stop  offset="0.0804" style="stop-color:#2F4353"/>
						<stop  offset="0.226" style="stop-color:#3A4D5C"/>
						<stop  offset="0.431" style="stop-color:#415361"/>
						<stop  offset="1" style="stop-color:#435563"/>
					</linearGradient>
					<polygon style="fill:url(#SVGID_00000113322263051835218650000007191374207896834466_);" points="59.06,939.62 59.05,939.6 
						145.53,807.1 145.56,807.1 145.57,807.08 219.71,940.23 219.7,940.24 					"/>
					
						<linearGradient id="SVGID_00000163047868772934348560000015690689752989199756_" gradientUnits="userSpaceOnUse" x1="2064.1057" y1="11640.9971" x2="2064.1057" y2="11500.2422" gradientTransform="matrix(-0.4787 -0.878 0.878 -0.4787 -9123.6387 8124.9629)">
						<stop  offset="0" style="stop-color:#24394A"/>
						<stop  offset="0.0804" style="stop-color:#2F4353"/>
						<stop  offset="0.226" style="stop-color:#3A4D5C"/>
						<stop  offset="0.431" style="stop-color:#415361"/>
						<stop  offset="1" style="stop-color:#435563"/>
					</linearGradient>
					<polygon style="fill:url(#SVGID_00000163047868772934348560000015690689752989199756_);" points="-15.11,806.42 -15.12,806.4 
						71.36,673.9 71.39,673.9 71.4,673.88 145.54,807.03 145.53,807.04 					"/>
					
						<linearGradient id="SVGID_00000176045346329004036860000012442219922810973832_" gradientUnits="userSpaceOnUse" x1="1981.6688" y1="12342.0576" x2="1981.6688" y2="12201.3018" gradientTransform="matrix(-0.4787 -0.878 0.878 -0.4787 -9123.6387 8124.9629)">
						<stop  offset="0" style="stop-color:#24394A"/>
						<stop  offset="0.0804" style="stop-color:#2F4353"/>
						<stop  offset="0.226" style="stop-color:#3A4D5C"/>
						<stop  offset="0.431" style="stop-color:#415361"/>
						<stop  offset="1" style="stop-color:#435563"/>
					</linearGradient>
					<polygon style="fill:url(#SVGID_00000176045346329004036860000012442219922810973832_);" points="639.88,543.2 639.87,543.19 
						726.36,410.68 726.38,410.68 726.39,410.66 800.53,543.81 800.52,543.83 					"/>
					
						<linearGradient id="SVGID_00000024709132289817606860000012027018048406899591_" gradientUnits="userSpaceOnUse" x1="1908.7975" y1="-8546.7627" x2="2061.197" y2="-8546.7627" gradientTransform="matrix(-0.4787 -0.878 -0.878 0.4787 -6097.4746 6476.0127)">
						<stop  offset="0" style="stop-color:#24394A"/>
						<stop  offset="0.1413" style="stop-color:#24394A"/>
						<stop  offset="1" style="stop-color:#24394A"/>
					</linearGradient>
					<polygon style="fill:url(#SVGID_00000024709132289817606860000012027018048406899591_);" points="393.98,674.45 393.97,674.43 
						480.45,541.93 480.48,541.93 480.49,541.91 554.63,675.05 554.62,675.07 					"/>
					
						<linearGradient id="SVGID_00000002364607691725298940000008867865039015250578_" gradientUnits="userSpaceOnUse" x1="2022.3502" y1="-8460.374" x2="2207.0085" y2="-8328.0527" gradientTransform="matrix(-0.4787 -0.878 -0.878 0.4787 -6097.4746 6476.0127)">
						<stop  offset="0.3731" style="stop-color:#24394A"/>
						<stop  offset="0.3857" style="stop-color:#394C5C"/>
						<stop  offset="0.4138" style="stop-color:#62717D"/>
						<stop  offset="0.4454" style="stop-color:#88939D"/>
						<stop  offset="0.4797" style="stop-color:#A8B1B7"/>
						<stop  offset="0.5176" style="stop-color:#C4C9CE"/>
						<stop  offset="0.5605" style="stop-color:#DADDE0"/>
						<stop  offset="0.6105" style="stop-color:#EAECEE"/>
						<stop  offset="0.6724" style="stop-color:#F6F7F8"/>
						<stop  offset="0.7591" style="stop-color:#FDFDFD"/>
						<stop  offset="1" style="stop-color:#FFFFFF"/>
					</linearGradient>
					<polygon style="opacity:0.5;fill:url(#SVGID_00000002364607691725298940000008867865039015250578_);" points="157.94,541.36 
						187.46,541.48 318.58,541.99 232.08,674.51 					"/>
					
						<linearGradient id="SVGID_00000149378727089026746160000001039653516513624741_" gradientUnits="userSpaceOnUse" x1="2063.0457" y1="7686.1611" x2="2215.4392" y2="7686.1611" gradientTransform="matrix(-0.4787 -0.878 0.878 -0.4787 -5590.6016 6198.897)">
						<stop  offset="0.0316" style="stop-color:#24394A"/>
						<stop  offset="0.0705" style="stop-color:#453E52"/>
						<stop  offset="0.1228" style="stop-color:#6A435B"/>
						<stop  offset="0.1813" style="stop-color:#8B4863"/>
						<stop  offset="0.2456" style="stop-color:#A74C69"/>
						<stop  offset="0.3177" style="stop-color:#BE4F6F"/>
						<stop  offset="0.4011" style="stop-color:#CF5273"/>
						<stop  offset="0.5029" style="stop-color:#DB5476"/>
						<stop  offset="0.6429" style="stop-color:#E25578"/>
						<stop  offset="1" style="stop-color:#E45578"/>
					</linearGradient>
					<polygon style="fill:url(#SVGID_00000149378727089026746160000001039653516513624741_);" points="133.75,578.35 157.91,541.34 
						232.05,674.49 71.41,673.87 					"/>
				</g>
				<polygon class="st3" points="469.08,521.42 417.16,600.98 417.15,600.99 417.15,600.98 372.64,521.05 				"/>
			</g>
			<polygon class="st4" points="1062.12,639.33 1124.47,543.81 1124.49,543.81 1124.47,543.81 			"/>
			<polygon class="st4" points="1037.98,676.35 1067.5,676.46 1037.98,676.35 			"/>
			<polygon class="st3" points="1272.78,810.14 1112.13,809.52 1112.12,809.5 1198.62,676.97 1198.62,676.97 1198.62,676.97 
				1198.64,676.97 1272.78,810.12 			"/>
			
				<linearGradient id="SVGID_00000121979384811422552670000007428746711053983360_" gradientUnits="userSpaceOnUse" x1="1482.5848" y1="-9168.4072" x2="1667.2432" y2="-9036.085" gradientTransform="matrix(-0.4787 -0.878 -0.878 0.4787 -6097.4746 6476.0127)">
				<stop  offset="0.3731" style="stop-color:#24394A"/>
				<stop  offset="0.3857" style="stop-color:#394C5C"/>
				<stop  offset="0.4138" style="stop-color:#62717D"/>
				<stop  offset="0.4454" style="stop-color:#88939D"/>
				<stop  offset="0.4797" style="stop-color:#A8B1B7"/>
				<stop  offset="0.5176" style="stop-color:#C4C9CE"/>
				<stop  offset="0.5605" style="stop-color:#DADDE0"/>
				<stop  offset="0.6105" style="stop-color:#EAECEE"/>
				<stop  offset="0.6724" style="stop-color:#F6F7F8"/>
				<stop  offset="0.7591" style="stop-color:#FDFDFD"/>
				<stop  offset="1" style="stop-color:#FFFFFF"/>
			</linearGradient>
			<polygon style="opacity:0.5;fill:url(#SVGID_00000121979384811422552670000007428746711053983360_);" points="1037.98,676.34 
				1067.5,676.45 1198.62,676.96 1112.12,809.49 			"/>
			
				<linearGradient id="SVGID_00000136379926662620883650000002272100836742636682_" gradientUnits="userSpaceOnUse" x1="1560.1981" y1="-9026.0537" x2="1744.8563" y2="-8893.7324" gradientTransform="matrix(-0.4787 -0.878 -0.878 0.4787 -6097.4746 6476.0127)">
				<stop  offset="0.3731" style="stop-color:#24394A"/>
				<stop  offset="0.3857" style="stop-color:#394C5C"/>
				<stop  offset="0.4138" style="stop-color:#62717D"/>
				<stop  offset="0.4454" style="stop-color:#88939D"/>
				<stop  offset="0.4797" style="stop-color:#A8B1B7"/>
				<stop  offset="0.5176" style="stop-color:#C4C9CE"/>
				<stop  offset="0.5605" style="stop-color:#DADDE0"/>
				<stop  offset="0.6105" style="stop-color:#EAECEE"/>
				<stop  offset="0.6724" style="stop-color:#F6F7F8"/>
				<stop  offset="0.7591" style="stop-color:#FDFDFD"/>
				<stop  offset="1" style="stop-color:#FFFFFF"/>
			</linearGradient>
			<polygon style="opacity:0.5;fill:url(#SVGID_00000136379926662620883650000002272100836742636682_);" points="875.84,676.34 
				905.36,676.45 1036.48,676.96 949.98,809.49 			"/>
			<polygon class="st7" points="1065.72,606.66 1048.91,632.43 997.28,539.72 1109.13,540.15 			"/>
			<polygon class="st3" points="1086.98,490.67 1077.44,476.05 1048.16,528.65 1111.61,528.4 			"/>
			<polygon class="st19" points="877.31,675.71 877.32,675.72 877.3,675.72 			"/>
			<polygon class="st19" points="963.81,543.18 963.82,543.17 963.83,543.18 			"/>
			<polygon class="st19" points="1124.48,543.79 1124.49,543.81 1124.47,543.81 			"/>
			
				<linearGradient id="SVGID_00000045601544834319963100000016567867597429391260_" gradientUnits="userSpaceOnUse" x1="1599.2661" y1="12488.4326" x2="1599.2661" y2="12347.6777" gradientTransform="matrix(-0.4787 -0.878 0.878 -0.4787 -9123.6387 8124.9629)">
				<stop  offset="0" style="stop-color:#24394A"/>
				<stop  offset="0.0804" style="stop-color:#2F4353"/>
				<stop  offset="0.226" style="stop-color:#3A4D5C"/>
				<stop  offset="0.431" style="stop-color:#415361"/>
				<stop  offset="1" style="stop-color:#435563"/>
			</linearGradient>
			<polygon style="fill:url(#SVGID_00000045601544834319963100000016567867597429391260_);" points="951.46,808.88 951.45,808.86 
				1037.93,676.36 1037.96,676.36 1037.97,676.34 1112.11,809.49 1112.1,809.51 			"/>
			
				<linearGradient id="SVGID_00000061467264843618221070000017067150539897863098_" gradientUnits="userSpaceOnUse" x1="1598.2063" y1="8533.5977" x2="1750.5996" y2="8533.5977" gradientTransform="matrix(-0.4787 -0.878 0.878 -0.4787 -5590.6016 6198.897)">
				<stop  offset="0.0316" style="stop-color:#24394A"/>
				<stop  offset="0.0705" style="stop-color:#453E52"/>
				<stop  offset="0.1228" style="stop-color:#6A435B"/>
				<stop  offset="0.1813" style="stop-color:#8B4863"/>
				<stop  offset="0.2456" style="stop-color:#A74C69"/>
				<stop  offset="0.3177" style="stop-color:#BE4F6F"/>
				<stop  offset="0.4011" style="stop-color:#CF5273"/>
				<stop  offset="0.5029" style="stop-color:#DB5476"/>
				<stop  offset="0.6429" style="stop-color:#E25578"/>
				<stop  offset="1" style="stop-color:#E45578"/>
			</linearGradient>
			<polygon style="fill:url(#SVGID_00000061467264843618221070000017067150539897863098_);" points="1100.32,580.81 1124.48,543.8 
				1198.62,676.95 1037.98,676.33 			"/>
			
				<linearGradient id="SVGID_00000179626490426676150020000003598363735936665768_" gradientUnits="userSpaceOnUse" x1="635.3998" y1="-1458.3483" x2="785.2521" y2="-1551.728" gradientTransform="matrix(1 0 0 -1 0 -737.7584)">
				<stop  offset="0.1729" style="stop-color:#24394A"/>
				<stop  offset="0.2018" style="stop-color:#413D51"/>
				<stop  offset="0.2503" style="stop-color:#6C445B"/>
				<stop  offset="0.3013" style="stop-color:#914964"/>
				<stop  offset="0.3542" style="stop-color:#AF4D6B"/>
				<stop  offset="0.4098" style="stop-color:#C75171"/>
				<stop  offset="0.4692" style="stop-color:#D75375"/>
				<stop  offset="0.535" style="stop-color:#E15577"/>
				<stop  offset="0.6199" style="stop-color:#E45578"/>
			</linearGradient>
			<polygon style="fill:url(#SVGID_00000179626490426676150020000003598363735936665768_);" points="689.89,713.39 714.05,676.39 
				788.19,809.54 627.55,808.91 			"/>
		</g>
	</g>
</g>
</svg>
